HIERARCHY
ROOT Hips
{
	OFFSET -0.179506 -22.333345 2.821913
	CHANNELS 6 Xposition Yposition Zposition Zrotation Yrotation Xrotation 
	JOINT LeftUpLeg
	{
		OFFSET 6.951974 -9.140623 -0.681533
		CHANNELS 3 Zrotation Yrotation Xrotation
		JOINT LeftLeg
		{
			OFFSET 3.427654 -37.519855 -0.449580
			CHANNELS 3 Zrotation Yrotation Xrotation
			JOINT LeftFoot
			{
				OFFSET -1.359570 -39.796059 -4.369333
				CHANNELS 3 Zrotation Yrotation Xrotation
				JOINT LeftToe
				{
					OFFSET 2.635814 -5.579078 11.928840
					CHANNELS 3 Zrotation Yrotation Xrotation
					End Site
					{
						OFFSET 0.000000 0.000000 0.000000
					}
				}
			}
		}
	}
	JOINT RightUpLeg
	{
		OFFSET -6.767048 -9.052170 -0.431982
		CHANNELS 3 Zrotation Yrotation Xrotation
		JOINT RightLeg
		{
			OFFSET -3.829005 -38.256897 -0.885003
			CHANNELS 3 Zrotation Yrotation Xrotation
			JOINT RightFoot
			{
				OFFSET 1.577377 -39.841461 -4.231180
				CHANNELS 3 Zrotation Yrotation Xrotation
				JOINT RightToe
				{
					OFFSET -2.537174 -4.814398 12.334795
					CHANNELS 3 Zrotation Yrotation Xrotation
					End Site
					{
						OFFSET 0.000000 0.000000 0.000000
					}
				}
			}
		}
	}
	JOINT Spine
	{
		OFFSET -0.253288 10.896323 -2.669631
		CHANNELS 3 Zrotation Yrotation Xrotation
		JOINT Spine1
		{
			OFFSET 0.548704 13.518043 0.109247
			CHANNELS 3 Zrotation Yrotation Xrotation
			JOINT Spine2
			{
				OFFSET 0.145701 5.292222 2.542457
				CHANNELS 3 Zrotation Yrotation Xrotation
				JOINT Neck
				{
					OFFSET -0.277840 21.387037 -4.285703
					CHANNELS 3 Zrotation Yrotation Xrotation
					JOINT Head
					{
						OFFSET 0.515184 6.496960 5.134897
						CHANNELS 3 Zrotation Yrotation Xrotation
						End Site
						{
							OFFSET 0.000000 0.000000 0.000000
						}
					}
				}
				JOINT LeftShoulder
				{
					OFFSET 7.884473 12.174932 -3.408961
					CHANNELS 3 Zrotation Yrotation Xrotation
					JOINT LeftArm
					{
						OFFSET 9.097692 3.046888 -0.886815
						CHANNELS 3 Zrotation Yrotation Xrotation
						JOINT LeftForeArm
						{
							OFFSET 25.961220 -1.277207 -2.745643
							CHANNELS 3 Zrotation Yrotation Xrotation
							JOINT LeftHand
							{
								OFFSET 24.923361 0.898606 -0.117091
								CHANNELS 3 Zrotation Yrotation Xrotation
								End Site
								{
									OFFSET 0.000000 0.000000 0.000000
								}
							}
						}
					}
				}
				JOINT RightShoulder
				{
					OFFSET -8.175920 11.883285 -3.861528
					CHANNELS 3 Zrotation Yrotation Xrotation
					JOINT RightArm
					{
						OFFSET -9.601238 3.255117 -0.914307
						CHANNELS 3 Zrotation Yrotation Xrotation
						JOINT RightForeArm
						{
							OFFSET -25.374195 -1.332924 -2.140099
							CHANNELS 3 Zrotation Yrotation Xrotation
							JOINT RightHand
							{
								OFFSET -25.529810 0.777228 -0.555919
								CHANNELS 3 Zrotation Yrotation Xrotation
								End Site
								{
									OFFSET 0.000000 0.000000 0.000000
								}
							}
						}
					}
				}
			}
		}
	}
}
MOTION
Frames: 17
Frame Time: 0.033333
-0.179506 100.942902 2.821913 -14.813991 85.691572 -15.662607 -6.011605 1.536555 6.919303 0.416001 -1.576484 -4.290556 2.571052 8.757269 -10.266961 3.082952 1.714036 2.150853 -0.782077 0.153865 1.600299 -2.763729 0.067703 5.254548 4.314290 -4.953852 -5.732802 4.666546 -2.740487 0.606779 -2.647067 2.535834 5.047475 5.504099 -4.294104 4.955787 -2.030749 -0.236386 -4.286200 1.528743 2.342269 -3.542256 1.419931 1.664039 -0.242314 -23.757822 2.311922 3.247658 -56.647251 -8.430621 17.223964 -4.205512 -27.061259 23.710671 -8.089815 -10.753812 7.821331 20.310447 2.505800 -0.344348 58.192829 2.889736 21.238814 -0.908036 23.578617 10.877701 5.528198 5.667703 4.294126 
-0.271472 101.006332 2.621224 -16.234148 85.812755 -17.075691 -6.124885 1.341571 6.639427 0.466935 -1.386857 -3.902747 2.474668 8.743587 -10.234419 3.112506 1.706465 2.181997 -0.794260 0.088924 1.786615 -2.853461 -0.106460 4.755124 4.567177 -4.989191 -5.216556 4.750089 -2.812178 0.682886 -2.555451 2.579929 5.026370 5.536233 -4.351036 4.813016 -2.036533 -0.250631 -4.274524 1.509162 1.955172 -3.517551 1.587836 1.648059 -0.017235 -23.847746 2.223658 3.405941 -56.864511 -8.681529 17.257465 -4.289364 -26.845616 23.798131 -8.137734 -10.902353 8.210454 20.054953 2.605704 -0.382137 58.383636 2.896876 21.153257 -1.007838 23.152015 11.242548 5.757239 5.766823 4.675840 
-0.348292 101.082008 2.452269 -15.799681 85.678667 -16.628373 -6.270820 1.200031 6.390229 0.439691 -1.149242 -3.572844 2.426029 8.838623 -10.074981 3.253717 1.713404 2.185441 -0.901082 0.026357 1.522629 -2.898736 -0.409678 4.991393 4.915025 -4.854837 -4.897388 4.825093 -2.863497 0.762085 -2.526035 2.584341 5.110695 5.572355 -4.391306 4.683045 -2.019428 -0.247902 -4.258294 1.550902 1.922166 -3.410327 1.684111 1.772503 0.198109 -23.795973 2.109341 3.480450 -57.078776 -8.947682 17.211781 -4.219921 -26.632008 24.022787 -8.177932 -10.801148 8.540271 19.887222 2.629487 -0.452472 58.485558 2.956044 21.076362 -1.158969 23.047460 11.326161 6.082633 5.689391 4.598042 
-0.443779 101.162117 2.286185 -15.203987 85.450438 -15.974814 -6.355438 1.133443 6.087499 0.336733 -0.991685 -3.272386 2.348990 8.966273 -9.866626 3.467087 1.733724 2.180035 -1.062000 -0.035818 0.930388 -2.841564 -0.656310 5.675222 5.306079 -4.699037 -4.661425 4.837015 -2.861998 0.840080 -2.522733 2.571775 5.224039 5.586393 -4.369879 4.613069 -1.989381 -0.219926 -4.253148 1.620340 2.067747 -3.187212 1.798879 1.903246 0.361204 -23.488324 1.897122 3.365623 -57.268118 -9.250590 17.230313 -4.165654 -26.547298 24.458311 -8.231473 -10.492234 8.752487 19.713175 2.686119 -0.481402 58.457248 3.084989 21.010588 -1.239465 23.210316 11.159232 6.206493 5.478975 4.049364 
-0.615321 101.235039 2.048704 -15.582885 85.087895 -16.341528 -6.374536 0.799784 5.433243 0.198376 -1.120419 -2.295120 2.326000 9.492625 -9.984538 3.821121 1.742693 2.076889 -1.175100 0.145171 -0.265490 -2.728568 -0.646874 7.470104 5.512884 -4.633661 -4.605969 4.940701 -2.882822 0.868942 -2.472732 2.468481 5.533151 5.616956 -4.368811 4.398017 -1.956948 -0.211170 -4.121459 1.616143 2.033678 -3.264067 1.871914 1.935296 0.460625 -23.245515 1.683908 3.312647 -57.164068 -9.639469 16.949701 -4.035935 -26.923069 24.146682 -7.836376 -10.552965 8.776456 19.564387 2.836414 -0.571451 58.314516 3.338527 20.853303 -1.457193 23.502260 10.821129 6.274733 5.498889 3.910110 
-1.151493 101.286308 1.785491 -16.212965 84.741451 -17.171627 -6.314961 0.222490 4.325652 -0.071897 -1.209934 -0.485488 2.284039 10.105126 -10.475216 4.190417 1.645076 1.940745 -1.232621 0.617176 -1.595924 -2.642381 -0.379085 9.486200 5.568431 -4.730296 -4.490102 5.175801 -2.909934 0.913318 -2.244113 2.332106 5.925644 5.457743 -4.285030 4.030031 -1.896841 -0.222887 -3.831646 1.636880 1.869248 -3.478863 2.126617 1.899081 0.574268 -22.877384 1.436263 3.041242 -57.205075 -10.208953 16.504034 -3.534311 -27.073554 23.058718 -6.699761 -10.845122 8.281148 18.997276 2.960762 -0.893379 58.529561 3.520504 20.449628 -1.945374 23.975970 10.203098 5.548360 5.515048 3.235494 
-1.664256 101.294113 1.352411 -16.241246 84.353840 -17.379245 -6.394225 -0.070903 3.265176 -0.355414 -1.258294 1.178602 2.234788 10.541166 -10.959676 4.702911 1.604643 1.728167 -1.574959 0.776741 -3.683219 -2.501479 -0.613661 12.664792 5.914846 -4.459395 -4.346602 5.351369 -2.897313 0.925157 -2.182571 2.181819 6.608382 5.325900 -4.152879 3.800590 -1.829953 -0.204846 -3.621067 1.642946 2.417590 -3.762861 2.102629 2.178945 0.633573 -22.382880 0.950887 2.682469 -57.030797 -10.803359 16.223732 -3.495613 -27.596030 22.901358 -6.107862 -10.823351 8.075706 18.841553 3.056798 -1.093914 58.017618 3.618698 20.045265 -2.534979 25.092774 9.078487 4.991317 5.609379 2.498443 
-2.328295 101.203278 0.943329 -15.797635 84.089693 -17.183009 -6.510078 -0.990228 1.350106 -0.838325 -1.574875 4.457147 2.298595 11.561196 -12.104170 5.502412 1.390720 1.140664 -2.114926 1.478580 -7.294796 -2.239156 -0.661479 18.269300 5.986019 -4.699444 -3.661031 5.757896 -2.866086 0.874527 -1.875742 1.838545 7.504756 5.045749 -4.082175 3.115673 -1.811229 -0.148181 -3.243829 1.623765 2.283900 -4.389312 2.300619 2.456938 0.435474 -21.571283 0.465549 2.269064 -56.879171 -11.264584 15.807865 -2.931668 -29.006897 21.576000 -4.570651 -11.129001 7.075499 18.038063 2.988377 -1.538336 58.189011 3.661144 19.237655 -3.868143 26.207280 7.607961 4.060598 5.593276 1.534945 
-2.729599 100.989380 -0.010931 -17.244571 83.741302 -18.890450 -6.829367 -1.936274 -0.533778 -1.382415 -2.131629 8.023552 2.587587 12.746244 -13.369504 6.767951 1.227201 0.345254 -3.087762 1.911267 -12.343723 -1.938222 -1.295394 26.195728 6.146038 -5.526076 -2.020124 6.076372 -2.716167 0.910694 -1.656421 1.606734 8.500394 4.854491 -3.957202 2.474286 -1.826149 -0.010694 -3.064927 1.307347 2.503941 -4.821309 2.149573 2.535071 0.690764 -20.648765 -0.107087 1.959630 -56.753034 -11.810226 15.568134 -2.632904 -30.226411 20.442170 -3.293998 -11.412544 5.360620 17.488788 2.796296 -1.912329 57.871757 3.385142 18.742809 -5.320826 27.639972 6.157473 3.668708 5.611733 0.695155 
-3.019053 100.544502 -1.451349 -20.523680 83.667133 -22.313344 -7.197163 -2.625155 -2.318631 -2.137684 -2.500046 11.428497 2.969037 12.948440 -15.161167 7.963210 1.079420 -0.467798 -4.406536 2.121416 -17.462839 -1.581252 -1.522956 34.701494 4.812974 -7.072660 -1.913049 6.354398 -2.449338 0.882143 -1.674590 1.181555 9.203611 4.866338 -3.817583 2.006649 -1.892069 0.009424 -2.793885 1.113821 2.238880 -4.955777 1.846144 2.700332 0.392694 -19.897191 -0.255690 1.676763 -56.302564 -12.670326 15.092931 -1.863925 -31.862086 18.247962 -1.529548 -11.591777 3.548216 17.258406 2.570656 -2.279799 56.726173 3.474012 18.390140 -6.512280 29.025021 4.405412 2.936367 5.951844 0.197782 
-3.314476 99.941269 -2.527575 -21.703049 83.204742 -24.083875 -7.383839 -2.737077 -3.258547 -2.853867 -2.530929 14.230385 3.734353 12.713209 -17.305416 8.265513 1.012096 -0.934942 -5.514094 1.825612 -19.731036 -1.319667 -1.366069 39.527249 4.145275 -8.063313 -2.376476 6.366450 -2.344841 0.874227 -1.925488 1.130316 9.671082 4.875777 -3.822897 2.293629 -2.133271 0.171537 -2.883374 1.101783 2.121311 -4.819489 1.974251 3.302018 -0.093889 -19.703936 -0.535606 1.479246 -55.148077 -13.600429 14.395887 -0.436672 -32.622492 15.327636 -1.111084 -11.327716 3.028352 17.414463 2.446826 -2.370426 55.694464 3.618055 17.893098 -7.099360 29.880683 2.822551 2.721368 6.098069 -0.170297 
-3.613779 99.451721 -2.721790 -18.993065 83.203308 -21.816854 -7.526126 -3.236140 -4.769625 -3.894582 -2.616033 17.761023 3.998777 13.137480 -19.079489 9.096121 0.864822 -1.516482 -6.587825 1.527142 -22.188595 -0.920590 -1.188867 44.907251 3.165699 -8.940607 -3.210913 6.502199 -2.071007 0.934879 -2.282940 1.214322 10.090310 4.871045 -3.881686 2.518535 -2.435726 0.317959 -2.941737 1.204971 2.259156 -5.013707 2.034635 3.706161 -0.568425 -19.584099 -0.737227 1.385685 -54.039792 -14.398685 13.950163 0.896652 -32.369642 12.880782 -0.062184 -11.245246 2.251917 17.916936 2.550863 -2.487389 54.806455 3.896925 17.708408 -7.374209 29.243576 1.265733 1.712470 5.838050 -0.572513 
-3.800919 99.335541 -2.052095 -13.575889 82.433332 -16.674550 -7.614401 -3.998550 -6.007451 -4.281530 -3.058357 20.478059 3.887462 14.528355 -19.452598 9.934701 0.805975 -1.980518 -7.183476 1.538191 -23.919913 0.314476 -0.245315 49.067103 2.701199 -8.920666 -5.278785 6.910473 -1.947329 0.881970 -2.304557 1.228442 10.666815 4.810329 -3.644833 1.974389 -2.786339 0.356774 -2.742139 1.407247 2.590201 -5.660771 1.860395 3.634559 -0.565921 -19.749953 0.039238 1.313695 -52.272960 -14.092856 13.081387 1.678692 -32.639415 10.979508 1.791116 -11.050245 0.042583 18.128182 2.239226 -2.925435 55.034754 4.181300 17.419358 -8.290793 28.120754 -0.062046 0.619898 5.553263 -0.843934 
-3.605314 99.783302 -1.423807 -14.163422 81.835422 -16.786051 -7.000980 -4.336543 -6.762910 -4.239900 -3.637315 21.245418 3.096283 15.016704 -18.071516 9.927167 0.674752 -1.928053 -6.558455 1.824463 -22.932646 0.957953 0.459856 47.534541 2.602905 -8.837520 -6.639385 6.778703 -1.888315 0.816891 -2.183853 1.310220 10.581556 4.698292 -3.542900 1.364528 -2.630745 0.222928 -2.478568 1.393277 2.598436 -6.295161 1.639945 3.083778 -0.622609 -19.810270 0.768992 1.411387 -51.636490 -13.183685 12.391681 2.015176 -31.498491 10.281326 3.196143 -10.902484 -0.710429 17.908475 1.846903 -3.086974 55.382713 3.974846 17.153495 -8.795470 27.140198 -0.556072 -0.461925 5.383773 -1.781595 
-2.593356 100.801888 -0.528092 -16.362133 80.881342 -17.804808 -5.803133 -3.651277 -6.152305 -3.279736 -3.252771 19.209929 1.746131 13.285185 -15.360179 8.634842 0.698635 -1.079417 -4.418992 1.733477 -16.246068 -0.320000 1.073558 35.457572 3.487983 -8.143216 -6.973341 6.345318 -2.162411 0.818219 -1.658336 1.755276 9.713723 4.240090 -3.323378 1.157700 -1.849663 0.109961 -2.144409 1.568516 2.082222 -7.196603 1.622637 2.593021 -0.760412 -20.296503 2.182159 1.275984 -51.780144 -11.590059 11.294335 3.022680 -28.790272 9.382652 3.058426 -11.389379 0.576542 17.529408 0.995875 -3.007553 55.521703 3.566555 16.432312 -9.063464 26.639355 -0.191649 -0.826828 5.485129 -1.602925 
-1.607362 101.963142 1.055630 -15.454631 80.459163 -15.451679 -5.047274 -2.963551 -4.505602 -1.786520 -2.779163 14.648234 0.524428 11.606540 -12.070016 7.187992 0.848630 -0.076044 -2.505387 1.229228 -10.912990 -1.306606 0.573979 24.736278 4.549759 -7.570276 -5.210493 5.857162 -2.491110 0.839412 -1.139181 1.926347 8.368749 3.749700 -2.897678 0.768090 -1.226775 0.091325 -2.122924 1.816589 1.564125 -7.568658 1.828965 2.292611 -0.999233 -20.741369 3.809376 1.152967 -52.302946 -9.699972 10.917062 3.585774 -26.321885 9.227920 1.155695 -11.365733 1.942233 17.031955 0.189773 -2.450716 55.930406 3.036343 15.834336 -9.130717 25.882625 0.581091 0.189835 5.474732 -1.089635 
-1.447464 102.940346 1.530229 -15.253261 80.868395 -14.275888 -4.794289 -2.983746 -4.192002 -0.944404 -2.362783 11.922465 -0.986078 10.381861 -9.282834 6.502535 0.975482 0.384468 -1.044130 1.175971 -8.771584 -1.759643 -0.237742 19.262671 4.922222 -7.781151 -3.258463 5.704829 -2.654392 0.900112 -0.746728 1.854501 7.465417 3.474006 -2.762289 0.270527 -0.794902 -0.011300 -2.119996 1.945029 1.195811 -7.900207 2.183869 2.192106 -1.602181 -20.994191 5.303830 1.513904 -53.071125 -8.223660 10.858433 3.640440 -24.654829 9.243828 -0.635230 -11.595868 2.131051 16.310299 -0.335253 -2.127221 56.744489 2.614925 15.470123 -9.179650 24.529855 0.704527 0.707774 5.849654 -1.695713 
